<svg width="36" height="36" viewBox="0 0 36 36" fill="none" xmlns="http://www.w3.org/2000/svg">
<mask id="path-1-inside-1_268_308" fill="white">
<path d="M18.4368 35.9684C8.77187 35.9509 0.951015 28.1018 0.968463 18.4368C0.985912 8.77182 8.83506 0.950958 18.5 0.968407C28.165 0.985855 35.9859 8.835 35.9684 18.5C35.951 28.1649 28.1018 35.9858 18.4368 35.9684ZM18.4969 2.69374C9.78482 2.67801 2.70953 9.72781 2.6938 18.4399C2.67807 27.152 9.72787 34.2273 18.44 34.243C27.152 34.2587 34.2273 27.2089 34.2431 18.4969C34.2588 9.78477 27.209 2.70947 18.4969 2.69374Z"/>
</mask>
<svg width="35" height="35" viewBox="-10 -9 35 35" fill="none" xmlns="http://www.w3.org/2000/svg">
<path d="M9 11.0625C8.6925 11.0625 8.4375 10.8075 8.4375 10.5V6.75C8.4375 6.4425 8.6925 6.1875 9 6.1875C9.3075 6.1875 9.5625 6.4425 9.5625 6.75V10.5C9.5625 10.8075 9.3075 11.0625 9 11.0625Z" fill="#FF5F56"/>
<path d="M9 13.5C8.955 13.5 8.9025 13.4925 8.85 13.485C8.805 13.4775 8.76 13.4625 8.715 13.44C8.67 13.425 8.625 13.4025 8.58 13.3725C8.5425 13.3425 8.505 13.3125 8.4675 13.2825C8.3325 13.14 8.25 12.945 8.25 12.75C8.25 12.555 8.3325 12.36 8.4675 12.2175C8.505 12.1875 8.5425 12.1575 8.58 12.1275C8.625 12.0975 8.67 12.075 8.715 12.06C8.76 12.0375 8.805 12.0225 8.85 12.015C8.9475 11.9925 9.0525 11.9925 9.1425 12.015C9.195 12.0225 9.24 12.0375 9.285 12.06C9.33 12.075 9.375 12.0975 9.42 12.1275C9.4575 12.1575 9.495 12.1875 9.5325 12.2175C9.6675 12.36 9.75 12.555 9.75 12.75C9.75 12.945 9.6675 13.14 9.5325 13.2825C9.495 13.3125 9.4575 13.3425 9.42 13.3725C9.375 13.4025 9.33 13.425 9.285 13.44C9.24 13.4625 9.195 13.4775 9.1425 13.485C9.0975 13.4925 9.045 13.5 9 13.5Z" fill="#FF5F56"/>
<path d="M13.545 16.62H4.45498C2.99248 16.62 1.87498 16.0875 1.30498 15.1275C0.742482 14.1675 0.817482 12.93 1.52998 11.6475L6.07498 3.4725C6.82498 2.1225 7.85998 1.38 8.99998 1.38C10.14 1.38 11.175 2.1225 11.925 3.4725L16.47 11.655C17.1825 12.9375 17.265 14.1675 16.695 15.135C16.125 16.0875 15.0075 16.62 13.545 16.62ZM8.99998 2.505C8.29498 2.505 7.60498 3.045 7.05748 4.02L2.51998 12.2025C2.00998 13.1175 1.92748 13.9575 2.27998 14.565C2.63248 15.1725 3.41248 15.5025 4.46248 15.5025H13.5525C14.6025 15.5025 15.375 15.1725 15.735 14.565C16.095 13.9575 16.005 13.125 15.495 12.2025L10.9425 4.02C10.395 3.045 9.70498 2.505 8.99998 2.505Z" fill="#FF5F56"/>
</svg>

<!-- <svg width="35" height="35" viewBox="-2 -2 35 35" fill="none" xmlns="http://www.w3.org/2000/svg"> -->
<!-- <path d="M16.5 30.25C24.0939 30.25 30.25 24.0939 30.25 16.5C30.25 8.90609 24.0939 2.75 16.5 2.75C8.90609 2.75 2.75 8.90609 2.75 16.5C2.75 24.0939 8.90609 30.25 16.5 30.25Z" fill="#FF5F56"/>
<path d="M14.5475 21.4225C14.2725 21.4225 14.0112 21.3125 13.8187 21.12L9.92748 17.2288C9.52873 16.83 9.52873 16.17 9.92748 15.7713C10.3262 15.3725 10.9862 15.3725 11.385 15.7713L14.5475 18.9338L21.615 11.8663C22.0137 11.4675 22.6737 11.4675 23.0725 11.8663C23.4712 12.265 23.4712 12.925 23.0725 13.3238L15.2762 21.12C15.0837 21.3125 14.8225 21.4225 14.5475 21.4225Z" fill="white"/> -->
 <!-- </svg> -->
<path d="M18.4368 35.9684C8.77187 35.9509 0.951015 28.1018 0.968463 18.4368C0.985912 8.77182 8.83506 0.950958 18.5 0.968407C28.165 0.985855 35.9859 8.835 35.9684 18.5C35.951 28.1649 28.1018 35.9858 18.4368 35.9684ZM18.4969 2.69374C9.78482 2.67801 2.70953 9.72781 2.6938 18.4399C2.67807 27.152 9.72787 34.2273 18.44 34.243C27.152 34.2587 34.2273 27.2089 34.2431 18.4969C34.2588 9.78477 27.209 2.70947 18.4969 2.69374Z" fill="#E6E0FF" stroke="#FF5F56" stroke-width="6" mask="url(#path-1-inside-1_268_308)"/>
</svg>

