<svg width="16" height="16" viewBox="0 0 16 16" fill="none" xmlns="http://www.w3.org/2000/svg">
<rect width="16" height="16" rx="8" fill="#755AE2"/>
<path d="M8.00003 6.2875L7.55419 7.0625C7.45419 7.23333 7.53753 7.375 7.73336 7.375H8.26253C8.46253 7.375 8.54169 7.51667 8.44169 7.6875L8.00003 8.4625" stroke="white" stroke-width="0.5" stroke-linecap="round" stroke-linejoin="round"/>
<path d="M6.45836 10.5167V10.0333C5.50002 9.45417 4.71252 8.325 4.71252 7.125C4.71252 5.0625 6.60836 3.44584 8.75002 3.9125C9.69169 4.12084 10.5167 4.74584 10.9459 5.60834C11.8167 7.35833 10.9 9.21667 9.55419 10.0292V10.5125C9.55419 10.6333 9.60002 10.9125 9.15419 10.9125H6.85836C6.40002 10.9167 6.45836 10.7375 6.45836 10.5167Z" stroke="white" stroke-width="0.5" stroke-linecap="round" stroke-linejoin="round"/>
<path d="M6.54169 12.1667C7.49585 11.8958 8.50419 11.8958 9.45835 12.1667" stroke="white" stroke-width="0.5" stroke-linecap="round" stroke-linejoin="round"/>
</svg>
