<svg width="36" height="36" viewBox="0 0 36 36" fill="none" xmlns="http://www.w3.org/2000/svg">
<mask id="path-1-inside-1_268_308" fill="white">
<path d="M18.4368 35.9684C8.77187 35.9509 0.951015 28.1018 0.968463 18.4368C0.985912 8.77182 8.83506 0.950958 18.5 0.968407C28.165 0.985855 35.9859 8.835 35.9684 18.5C35.951 28.1649 28.1018 35.9858 18.4368 35.9684ZM18.4969 2.69374C9.78482 2.67801 2.70953 9.72781 2.6938 18.4399C2.67807 27.152 9.72787 34.2273 18.44 34.243C27.152 34.2587 34.2273 27.2089 34.2431 18.4969C34.2588 9.78477 27.209 2.70947 18.4969 2.69374Z"/>
</mask>
<svg width="35" height="35" viewBox="-2 -2 35 35" fill="none" xmlns="http://www.w3.org/2000/svg">
<path d="M16.5 30.25C24.0939 30.25 30.25 24.0939 30.25 16.5C30.25 8.90609 24.0939 2.75 16.5 2.75C8.90609 2.75 2.75 8.90609 2.75 16.5C2.75 24.0939 8.90609 30.25 16.5 30.25Z" fill="#755AE2"/>
<path d="M14.5475 21.4225C14.2725 21.4225 14.0112 21.3125 13.8187 21.12L9.92748 17.2288C9.52873 16.83 9.52873 16.17 9.92748 15.7713C10.3262 15.3725 10.9862 15.3725 11.385 15.7713L14.5475 18.9338L21.615 11.8663C22.0137 11.4675 22.6737 11.4675 23.0725 11.8663C23.4712 12.265 23.4712 12.925 23.0725 13.3238L15.2762 21.12C15.0837 21.3125 14.8225 21.4225 14.5475 21.4225Z" fill="white"/>
 </svg>
<path d="M18.4368 35.9684C8.77187 35.9509 0.951015 28.1018 0.968463 18.4368C0.985912 8.77182 8.83506 0.950958 18.5 0.968407C28.165 0.985855 35.9859 8.835 35.9684 18.5C35.951 28.1649 28.1018 35.9858 18.4368 35.9684ZM18.4969 2.69374C9.78482 2.67801 2.70953 9.72781 2.6938 18.4399C2.67807 27.152 9.72787 34.2273 18.44 34.243C27.152 34.2587 34.2273 27.2089 34.2431 18.4969C34.2588 9.78477 27.209 2.70947 18.4969 2.69374Z" fill="#E6E0FF" stroke="#755AE2" stroke-width="6" mask="url(#path-1-inside-1_268_308)"/>
</svg>

