<svg width="16" height="16" viewBox="0 0 16 16" fill="none" xmlns="http://www.w3.org/2000/svg">
<rect width="16" height="16" rx="8" fill="#755AE2"/>
<path d="M8 11.2292C6.45 11.2292 5.1875 9.96667 5.1875 8.41667V6.33333C5.1875 4.78333 6.45 3.52083 8 3.52083C9.55 3.52083 10.8125 4.78333 10.8125 6.33333V8.41667C10.8125 9.96667 9.55 11.2292 8 11.2292ZM8 4.14583C6.79583 4.14583 5.8125 5.125 5.8125 6.33333V8.41667C5.8125 9.625 6.79583 10.6042 8 10.6042C9.20417 10.6042 10.1875 9.625 10.1875 8.41667V6.33333C10.1875 5.125 9.20417 4.14583 8 4.14583Z" fill="white"/>
<path d="M8 12.4792C5.75833 12.4792 3.9375 10.6583 3.9375 8.41667V7.58333C3.9375 7.4125 4.07917 7.27083 4.25 7.27083C4.42083 7.27083 4.5625 7.4125 4.5625 7.58333V8.41667C4.5625 10.3125 6.10417 11.8542 8 11.8542C9.89583 11.8542 11.4375 10.3125 11.4375 8.41667V7.58333C11.4375 7.4125 11.5792 7.27083 11.75 7.27083C11.9208 7.27083 12.0625 7.4125 12.0625 7.58333V8.41667C12.0625 10.6583 10.2417 12.4792 8 12.4792Z" fill="white"/>
<path d="M9.08753 6.42917C9.0542 6.42917 9.0167 6.425 8.9792 6.4125C8.30836 6.17083 7.57086 6.17083 6.90003 6.4125C6.7417 6.47083 6.56253 6.3875 6.5042 6.225C6.44586 6.0625 6.5292 5.88333 6.6917 5.825C7.50003 5.53333 8.38753 5.53333 9.19586 5.825C9.35836 5.88333 9.4417 6.0625 9.38336 6.225C9.33753 6.35417 9.2167 6.42917 9.08753 6.42917Z" fill="white"/>
<path d="M8.70834 7.67917C8.68334 7.67917 8.65417 7.675 8.62501 7.66667C8.17917 7.54583 7.70834 7.54583 7.26251 7.66667C7.09167 7.7125 6.92501 7.6125 6.87917 7.44583C6.83334 7.27917 6.93334 7.10833 7.10001 7.0625C7.65417 6.9125 8.23751 6.9125 8.79167 7.0625C8.95834 7.10833 9.05834 7.27917 9.01251 7.44583C8.97084 7.59167 8.84584 7.67917 8.70834 7.67917Z" fill="white"/>
</svg>
